<svg width="35" height="35" viewBox="0 0 35 35" fill="none" xmlns="http://www.w3.org/2000/svg">
<rect x="0.5" y="0.5" width="34" height="34" rx="17" fill="#C03D3A" fill-opacity="0.1"/>
<path d="M23.873 13.7507V18.2507C23.873 21.0791 23.873 22.4934 22.9943 23.372C22.1157 24.2507 20.7014 24.2507 17.873 24.2507H17.123M11.123 13.7507V18.2507C11.123 21.0791 11.123 22.4934 12.0017 23.372C12.5303 23.9006 13.2527 24.1112 14.3601 24.1952" stroke="#C03D3A" stroke-width="1.25" stroke-linecap="round"/>
<path d="M17.498 10.7507H11.498C10.7909 10.7507 10.4374 10.7507 10.2177 10.9704C9.99805 11.1901 9.99805 11.5436 9.99805 12.2507C9.99805 12.9578 9.99805 13.3114 10.2177 13.5311C10.4374 13.7507 10.7909 13.7507 11.498 13.7507H23.498C24.2051 13.7507 24.5587 13.7507 24.7784 13.5311C24.998 13.3114 24.998 12.9578 24.998 12.2507C24.998 11.5436 24.998 11.1901 24.7784 10.9704C24.5587 10.7507 24.2051 10.7507 23.498 10.7507H20.498" stroke="#C03D3A" stroke-width="1.25" stroke-linecap="round"/>
<path d="M17.5 13.7507V20.5007M17.5 20.5007L19.75 18.0008M17.5 20.5007L15.25 18.0008" stroke="#C03D3A" stroke-width="1.25" stroke-linecap="round" stroke-linejoin="round"/>
</svg>
