<svg width="24" height="24" viewBox="0 0 24 24" fill="none" xmlns="http://www.w3.org/2000/svg">
<path d="M20.3333 19.5V17.8333C20.3333 16.2801 19.271 14.9751 17.8333 14.605M14.9166 4.7423C16.1382 5.23679 17 6.43443 17 7.83333C17 9.23224 16.1382 10.4299 14.9166 10.9244M16.1666 19.5C16.1666 17.9469 16.1666 17.1703 15.9129 16.5577C15.5746 15.741 14.9257 15.092 14.1089 14.7537C13.4963 14.5 12.7198 14.5 11.1666 14.5H8.66663C7.11349 14.5 6.33692 14.5 5.72435 14.7537C4.90759 15.092 4.25867 15.741 3.92036 16.5577C3.66663 17.1703 3.66663 17.9469 3.66663 19.5M13.25 7.83333C13.25 9.67428 11.7576 11.1667 9.91663 11.1667C8.07568 11.1667 6.58329 9.67428 6.58329 7.83333C6.58329 5.99238 8.07568 4.5 9.91663 4.5C11.7576 4.5 13.25 5.99238 13.25 7.83333Z" stroke="#737373" stroke-width="1.5" stroke-linecap="round" stroke-linejoin="round"/>
</svg>
