<svg width="34" height="35" viewBox="0 0 34 35" fill="none" xmlns="http://www.w3.org/2000/svg">
<rect y="0.5" width="34" height="34" rx="17" fill="#C03D3A" fill-opacity="0.1"/>
<path d="M14.75 10.75H19.25M10.25 13H23.75M22.25 13L21.724 20.8895C21.6451 22.0732 21.6057 22.665 21.35 23.1138C21.1249 23.5088 20.7854 23.8265 20.3762 24.0248C19.9115 24.25 19.3183 24.25 18.132 24.25H15.868C14.6817 24.25 14.0885 24.25 13.6238 24.0248C13.2146 23.8265 12.8751 23.5088 12.65 23.1138C12.3943 22.665 12.3549 22.0732 12.276 20.8895L11.75 13M15.5 16.375V20.125M18.5 16.375V20.125" stroke="#C03D3A" stroke-width="1.25" stroke-linecap="round" stroke-linejoin="round"/>
</svg>
