<svg width="24" height="24" viewBox="0 0 24 24" fill="none" xmlns="http://www.w3.org/2000/svg">
<path d="M7.00008 11.1673V14.5006M17.0001 9.50065V12.834M16.1667 5.33398C18.2073 5.33398 19.311 5.64628 19.8602 5.88852C19.9333 5.92078 19.9699 5.93691 20.0754 6.03763C20.1387 6.098 20.2542 6.27515 20.2839 6.35739C20.3334 6.4946 20.3334 6.5696 20.3334 6.7196V15.6766C20.3334 16.4339 20.3334 16.8126 20.2199 17.0072C20.1043 17.2052 19.9929 17.2972 19.7767 17.3733C19.5641 17.4481 19.1351 17.3657 18.2769 17.2008C17.6762 17.0854 16.9638 17.0007 16.1667 17.0007C13.6667 17.0007 11.1667 18.6673 7.83341 18.6673C5.79283 18.6673 4.68914 18.355 4.13998 18.1128C4.06685 18.0805 4.03028 18.0644 3.92475 17.9637C3.86149 17.9033 3.74601 17.7262 3.71631 17.6439C3.66675 17.5067 3.66675 17.4317 3.66675 17.2817L3.66675 8.3247C3.66675 7.56739 3.66675 7.18874 3.78031 6.9941C3.89583 6.79612 4.00724 6.70408 4.22346 6.62799C4.43603 6.55319 4.86511 6.63564 5.72327 6.80052C6.32393 6.91593 7.03631 7.00065 7.83341 7.00065C10.3334 7.00065 12.8334 5.33398 16.1667 5.33398ZM14.0834 12.0007C14.0834 13.1512 13.1507 14.084 12.0001 14.084C10.8495 14.084 9.91675 13.1512 9.91675 12.0007C9.91675 10.8501 10.8495 9.91732 12.0001 9.91732C13.1507 9.91732 14.0834 10.8501 14.0834 12.0007Z" stroke="#737373" stroke-width="1.5" stroke-linecap="round" stroke-linejoin="round"/>
</svg>
