<svg width="24" height="24" viewBox="0 0 24 24" fill="none" xmlns="http://www.w3.org/2000/svg">
<path d="M13.6667 3.89127V7.33339C13.6667 7.8001 13.6667 8.03346 13.7575 8.21172C13.8374 8.36852 13.9649 8.496 14.1217 8.5759C14.3 8.66672 14.5333 8.66672 15 8.66672H18.4422M15.3334 12.8333H8.66671M15.3334 16.1667H8.66671M10.3334 9.5H8.66671M13.6667 3.66666H9.33337C7.93324 3.66666 7.23318 3.66666 6.6984 3.93915C6.22799 4.17883 5.84554 4.56128 5.60586 5.03169C5.33337 5.56647 5.33337 6.26653 5.33337 7.66666V16.3333C5.33337 17.7335 5.33337 18.4335 5.60586 18.9683C5.84554 19.4387 6.22799 19.8212 6.6984 20.0608C7.23318 20.3333 7.93324 20.3333 9.33337 20.3333H14.6667C16.0668 20.3333 16.7669 20.3333 17.3017 20.0608C17.7721 19.8212 18.1545 19.4387 18.3942 18.9683C18.6667 18.4335 18.6667 17.7335 18.6667 16.3333V8.66666L13.6667 3.66666Z" stroke="#737373" stroke-width="1.5" stroke-linecap="round" stroke-linejoin="round"/>
</svg>
