<svg width="24" height="24" viewBox="0 0 24 24" fill="none" xmlns="http://www.w3.org/2000/svg">
<path d="M11.7331 22.6667C5.84203 22.6667 1.06641 17.8911 1.06641 12C1.06641 6.109 5.84203 1.33337 11.7331 1.33337C17.6241 1.33337 22.3997 6.109 22.3997 12C22.3997 17.8911 17.6241 22.6667 11.7331 22.6667Z" fill="#FFDB44"/>
<path d="M21.7282 8.26671C20.2148 4.21693 16.3107 1.33337 11.7331 1.33337C7.15544 1.33337 3.25131 4.21693 1.73799 8.26671L21.7282 8.26671Z" fill="#D90026"/>
<path d="M1.73799 15.7334C3.25131 19.7831 7.15544 22.6667 11.7331 22.6667C16.3107 22.6667 20.2148 19.7831 21.7282 15.7334L1.73799 15.7334Z" fill="#D90026"/>
</svg>
