<svg width="24" height="24" viewBox="0 0 24 24" fill="none" xmlns="http://www.w3.org/2000/svg">
<path d="M13.6667 19.5H10.3334M17.0001 8.66666C17.0001 7.34057 16.4733 6.0688 15.5356 5.13112C14.5979 4.19344 13.3261 3.66666 12.0001 3.66666C10.674 3.66666 9.4022 4.19344 8.46452 5.13112C7.52684 6.0688 7.00006 7.34057 7.00006 8.66666C7.00006 11.2418 6.35045 13.005 5.62478 14.1712C5.01266 15.1549 4.7066 15.6467 4.71783 15.784C4.73025 15.9359 4.76244 15.9938 4.88487 16.0846C4.99544 16.1667 5.49388 16.1667 6.49077 16.1667H17.5093C18.5062 16.1667 19.0047 16.1667 19.1152 16.0846C19.2377 15.9938 19.2699 15.9359 19.2823 15.784C19.2935 15.6467 18.9875 15.1549 18.3753 14.1712C17.6497 13.005 17.0001 11.2418 17.0001 8.66666Z" stroke="#737373" stroke-width="1.5" stroke-linecap="round" stroke-linejoin="round"/>
</svg>
