<svg width="24" height="24" viewBox="0 0 24 24" fill="none" xmlns="http://www.w3.org/2000/svg">
<path d="M11.1666 11.1667H7.16663C6.23321 11.1667 5.76649 11.1667 5.40998 11.3483C5.09637 11.5081 4.8414 11.7631 4.68162 12.0767C4.49996 12.4332 4.49996 12.8999 4.49996 13.8333V19.5M19.5 19.5V7.16667C19.5 6.23325 19.5 5.76654 19.3183 5.41002C19.1585 5.09641 18.9035 4.84144 18.5899 4.68166C18.2334 4.5 17.7667 4.5 16.8333 4.5H13.8333C12.8999 4.5 12.4332 4.5 12.0766 4.68166C11.763 4.84144 11.5081 5.09641 11.3483 5.41002C11.1666 5.76654 11.1666 6.23325 11.1666 7.16667V19.5M20.3333 19.5H3.66663M14.0833 7.83333H16.5833M14.0833 11.1667H16.5833M14.0833 14.5H16.5833" stroke="#737373" stroke-width="1.5" stroke-linecap="round" stroke-linejoin="round"/>
</svg>
