<svg width="24" height="24" viewBox="0 0 24 24" fill="none" xmlns="http://www.w3.org/2000/svg">
<path d="M13.6667 11.1667H8.66671M10.3334 14.5H8.66671M15.3334 7.83334H8.66671M18.6667 7.66667V16.3333C18.6667 17.7335 18.6667 18.4335 18.3942 18.9683C18.1545 19.4387 17.7721 19.8212 17.3017 20.0609C16.7669 20.3333 16.0668 20.3333 14.6667 20.3333H9.33337C7.93324 20.3333 7.23318 20.3333 6.6984 20.0609C6.22799 19.8212 5.84554 19.4387 5.60586 18.9683C5.33337 18.4335 5.33337 17.7335 5.33337 16.3333V7.66667C5.33337 6.26654 5.33337 5.56647 5.60586 5.0317C5.84554 4.56129 6.22799 4.17884 6.6984 3.93916C7.23318 3.66667 7.93324 3.66667 9.33337 3.66667H14.6667C16.0668 3.66667 16.7669 3.66667 17.3017 3.93916C17.7721 4.17884 18.1545 4.56129 18.3942 5.0317C18.6667 5.56647 18.6667 6.26654 18.6667 7.66667Z" stroke="#737373" stroke-width="1.5" stroke-linecap="round" stroke-linejoin="round"/>
</svg>
