<svg width="24" height="24" viewBox="0 0 24 24" fill="none" xmlns="http://www.w3.org/2000/svg">
<path d="M18.6667 19.5C18.6667 18.337 18.6667 17.7555 18.5232 17.2824C18.2 16.217 17.3663 15.3834 16.301 15.0602C15.8278 14.9167 15.2463 14.9167 14.0834 14.9167H9.91671C8.75374 14.9167 8.17225 14.9167 7.69909 15.0602C6.63375 15.3834 5.80007 16.217 5.47691 17.2824C5.33337 17.7555 5.33337 18.337 5.33337 19.5M15.75 8.25C15.75 10.3211 14.0711 12 12 12C9.92897 12 8.25004 10.3211 8.25004 8.25C8.25004 6.17893 9.92897 4.5 12 4.5C14.0711 4.5 15.75 6.17893 15.75 8.25Z" stroke="#595959" stroke-width="1.5" stroke-linecap="round" stroke-linejoin="round"/>
</svg>
