<svg width="24" height="24" viewBox="0 0 24 24" fill="none" xmlns="http://www.w3.org/2000/svg">
<path d="M10.3618 12.6177L11.0862 12.812L11.0863 12.8117L10.3618 12.6177ZM10.951 12.0284L11.145 12.7529L11.1454 12.7528L10.951 12.0284ZM13.049 12.0284L12.8547 12.7528L12.8551 12.7529L13.049 12.0284ZM13.6383 12.6177L12.9138 12.8117L12.9139 12.812L13.6383 12.6177ZM16.6297 13.1535L16.7851 13.8872L16.7851 13.8872L16.6297 13.1535ZM19.495 10.8713L18.8012 10.5862L18.8012 10.5863L19.495 10.8713ZM19.8567 9.03809L20.5996 9.14102V9.14101L19.8567 9.03809ZM19.9075 8.35142L20.6478 8.23107L20.6478 8.23077L19.9075 8.35142ZM19.0318 7.45638L18.8499 8.18399L18.8499 8.18399L19.0318 7.45638ZM4.96826 7.45638L5.15014 8.18399L5.15015 8.18399L4.96826 7.45638ZM4.09257 8.35142L4.83282 8.47197L4.83282 8.47197L4.09257 8.35142ZM4.14335 9.03809L3.40045 9.141L3.40045 9.14102L4.14335 9.03809ZM4.50511 10.8713L5.19886 10.5863L5.19886 10.5863L4.50511 10.8713ZM7.37034 13.1535L7.21491 13.8872L7.21492 13.8872L7.37034 13.1535ZM5.6667 11.5833C5.6667 11.1691 5.33092 10.8333 4.9167 10.8333C4.50249 10.8333 4.1667 11.1691 4.1667 11.5833H4.9167H5.6667ZM5.83878 18.9403L6.38405 18.4254L6.38402 18.4254L5.83878 18.9403ZM18.1613 18.9403L17.616 18.4254L17.616 18.4254L18.1613 18.9403ZM19.8334 11.5833C19.8334 11.1691 19.4976 10.8333 19.0834 10.8333C18.6692 10.8333 18.3334 11.1691 18.3334 11.5833H19.0834H19.8334ZM14.8523 7.12234L14.1196 7.2826L14.1196 7.28268L14.8523 7.12234ZM13.9891 4.5028L14.5437 3.99788L14.5437 3.99787L13.9891 4.5028ZM10.0109 4.5028L9.45639 3.99786L9.45638 3.99787L10.0109 4.5028ZM9.14776 7.12234L9.88044 7.28262L9.88044 7.28261L9.14776 7.12234ZM10.3334 13.1111H11.0834C11.0834 12.9751 11.0836 12.8982 11.0861 12.8414C11.0886 12.7887 11.0919 12.7905 11.0862 12.812L10.3618 12.6177L9.63741 12.4233C9.57691 12.6488 9.58337 12.9011 9.58337 13.1111H10.3334ZM10.3618 12.6177L11.0863 12.8117C11.0939 12.783 11.1164 12.7606 11.145 12.7529L10.951 12.0284L10.7571 11.3039C10.2105 11.4503 9.78363 11.8772 9.63731 12.4237L10.3618 12.6177ZM10.951 12.0284L11.1454 12.7528C11.1239 12.7586 11.122 12.7552 11.1748 12.7528C11.2315 12.7502 11.3085 12.75 11.4445 12.75V12V11.25C11.2345 11.25 10.9822 11.2436 10.7567 11.304L10.951 12.0284ZM11.4445 12V12.75H12.5556V12V11.25H11.4445V12ZM12.5556 12V12.75C12.6916 12.75 12.7685 12.7502 12.8253 12.7528C12.878 12.7552 12.8762 12.7586 12.8547 12.7528L13.049 12.0284L13.2434 11.304C13.0179 11.2436 12.7656 11.25 12.5556 11.25V12ZM13.049 12.0284L12.8551 12.7529C12.8837 12.7606 12.9061 12.783 12.9138 12.8117L13.6383 12.6177L14.3628 12.4237C14.2164 11.8772 13.7895 11.4503 13.243 11.3039L13.049 12.0284ZM13.6383 12.6177L12.9139 12.812C12.9081 12.7905 12.9115 12.7887 12.9139 12.8414C12.9165 12.8982 12.9167 12.9751 12.9167 13.1111H13.6667H14.4167C14.4167 12.9011 14.4232 12.6488 14.3627 12.4233L13.6383 12.6177ZM13.6667 13.1111H12.9167V13.6667H13.6667H14.4167V13.1111H13.6667ZM13.6667 13.6667H12.9167C12.9167 14.173 12.5063 14.5833 12 14.5833V15.3333V16.0833C13.3348 16.0833 14.4167 15.0014 14.4167 13.6667H13.6667ZM12 15.3333V14.5833C11.4938 14.5833 11.0834 14.173 11.0834 13.6667H10.3334H9.58337C9.58337 15.0014 10.6653 16.0833 12 16.0833V15.3333ZM10.3334 13.6667H11.0834V13.1111H10.3334H9.58337V13.6667H10.3334ZM13.5834 13.25V14H14.5689V13.25V12.5H13.5834V13.25ZM14.5689 13.25V14C15.6021 14 16.2336 14.0041 16.7851 13.8872L16.6297 13.1535L16.4743 12.4198C16.1147 12.496 15.676 12.5 14.5689 12.5V13.25ZM16.6297 13.1535L16.7851 13.8872C18.3212 13.5618 19.6144 12.5544 20.1887 11.1562L19.495 10.8713L18.8012 10.5863C18.434 11.4801 17.5755 12.1865 16.4743 12.4198L16.6297 13.1535ZM19.495 10.8713L20.1887 11.1563C20.3964 10.6508 20.4729 10.0556 20.5996 9.14102L19.8567 9.03809L19.1138 8.93517C18.975 9.93692 18.9189 10.2999 18.8012 10.5862L19.495 10.8713ZM19.8567 9.03809L20.5996 9.14101C20.6415 8.83867 20.6945 8.51823 20.6478 8.23107L19.9075 8.35142L19.1673 8.47177C19.1648 8.45679 19.1698 8.46808 19.1626 8.54972C19.1552 8.63477 19.1398 8.74777 19.1138 8.93517L19.8567 9.03809ZM19.9075 8.35142L20.6478 8.23077C20.524 7.47114 19.9303 6.90788 19.2136 6.72876L19.0318 7.45638L18.8499 8.18399C19.0584 8.2361 19.1514 8.37478 19.1673 8.47207L19.9075 8.35142ZM19.0318 7.45638L19.2137 6.72876C18.9422 6.66092 18.6247 6.66668 18.2704 6.66668V7.41668V8.16668C18.7196 8.16668 18.8037 8.17244 18.8499 8.18399L19.0318 7.45638ZM18.2704 7.41668V6.66668H5.72972V7.41668V8.16668H18.2704V7.41668ZM5.72972 7.41668V6.66668C5.37542 6.66668 5.05782 6.66091 4.78638 6.72877L4.96826 7.45638L5.15015 8.18399C5.19634 8.17244 5.28051 8.16668 5.72972 8.16668V7.41668ZM4.96826 7.45638L4.78639 6.72876C4.06981 6.90788 3.47605 7.47112 3.35232 8.23087L4.09257 8.35142L4.83282 8.47197C4.84864 8.3748 4.94163 8.23611 5.15014 8.18399L4.96826 7.45638ZM4.09257 8.35142L3.35232 8.23087C3.30554 8.51815 3.35858 8.83872 3.40045 9.141L4.14335 9.03809L4.88626 8.93519C4.8603 8.74777 4.84488 8.6348 4.83745 8.54976C4.83032 8.46814 4.83527 8.45692 4.83282 8.47197L4.09257 8.35142ZM4.14335 9.03809L3.40045 9.14102C3.52717 10.0557 3.60371 10.6508 3.81137 11.1562L4.50511 10.8713L5.19886 10.5863C5.08123 10.2999 5.02504 9.93687 4.88626 8.93517L4.14335 9.03809ZM4.50511 10.8713L3.81137 11.1562C4.38571 12.5544 5.67882 13.5618 7.21491 13.8872L7.37034 13.1535L7.52576 12.4198C6.42455 12.1865 5.56603 11.4801 5.19886 10.5863L4.50511 10.8713ZM7.37034 13.1535L7.21492 13.8872C7.76645 14.0041 8.39799 14 9.43123 14V13.25V12.5C8.32405 12.5 7.88537 12.496 7.52575 12.4198L7.37034 13.1535ZM9.43123 13.25V14H10.4167V13.25V12.5H9.43123V13.25ZM4.9167 11.5833H4.1667V13.25H4.9167H5.6667V11.5833H4.9167ZM4.9167 13.25H4.1667C4.1667 14.8013 4.16528 16.0361 4.28794 17.0021C4.4128 17.9854 4.6777 18.8033 5.29354 19.4553L5.83878 18.9403L6.38402 18.4254C6.07778 18.1011 5.88165 17.6452 5.77599 16.8131C5.66813 15.9636 5.6667 14.8414 5.6667 13.25H4.9167ZM5.83878 18.9403L5.29351 19.4553C5.91504 20.1134 6.70436 20.4021 7.65293 20.5371C8.57532 20.6685 9.75138 20.6667 11.213 20.6667V19.9167V19.1667C9.70655 19.1667 8.65652 19.1649 7.86433 19.0521C7.09833 18.9431 6.68459 18.7436 6.38405 18.4254L5.83878 18.9403ZM11.213 19.9167V20.6667H12.787V19.9167V19.1667H11.213V19.9167ZM12.787 19.9167V20.6667C14.2487 20.6667 15.4248 20.6685 16.3471 20.5371C17.2957 20.4021 18.085 20.1134 18.7065 19.4553L18.1613 18.9403L17.616 18.4254C17.3155 18.7436 16.9017 18.9431 16.1357 19.0521C15.3436 19.1649 14.2935 19.1667 12.787 19.1667V19.9167ZM18.1613 18.9403L18.7065 19.4553C19.3224 18.8033 19.5873 17.9854 19.7121 17.0021C19.8348 16.0361 19.8334 14.8013 19.8334 13.25H19.0834H18.3334C18.3334 14.8414 18.3319 15.9636 18.2241 16.8131C18.1184 17.6452 17.9223 18.1011 17.616 18.4254L18.1613 18.9403ZM19.0834 13.25H19.8334V11.5833H19.0834H18.3334V13.25H19.0834ZM14.9167 7.41668L15.6494 7.25633L15.5849 6.96199L14.8523 7.12234L14.1196 7.28268L14.184 7.57702L14.9167 7.41668ZM14.8523 7.12234L15.585 6.96207C15.4273 6.24117 15.2999 5.65593 15.1609 5.20086C15.0217 4.74488 14.8463 4.33027 14.5437 3.99788L13.9891 4.5028L13.4346 5.00773C13.5138 5.0948 13.6096 5.2566 13.7263 5.63884C13.8433 6.02199 13.9565 6.53678 14.1196 7.2826L14.8523 7.12234ZM13.9891 4.5028L14.5437 3.99787C14.2166 3.63861 13.8294 3.47105 13.403 3.39687C13.023 3.33076 12.5666 3.33334 12.0853 3.33334V4.08334V4.83334C12.6186 4.83334 12.9232 4.83593 13.1459 4.87468C13.3223 4.90537 13.3797 4.94754 13.4346 5.00773L13.9891 4.5028ZM12.0853 4.08334V3.33334H11.9148V4.08334V4.83334H12.0853V4.08334ZM11.9148 4.08334V3.33334C11.4334 3.33334 10.9771 3.33076 10.597 3.39687C10.1707 3.47105 9.78349 3.63861 9.45639 3.99786L10.0109 4.5028L10.5655 5.00774C10.6203 4.94754 10.6777 4.90537 10.8541 4.87468C11.0769 4.83593 11.3815 4.83334 11.9148 4.83334V4.08334ZM10.0109 4.5028L9.45638 3.99787C9.15374 4.33026 8.97834 4.74488 8.83913 5.20086C8.7002 5.65593 8.57278 6.24117 8.41509 6.96206L9.14776 7.12234L9.88044 7.28261C10.0436 6.53678 10.1568 6.02199 10.2738 5.63884C10.3905 5.2566 10.4862 5.09481 10.5655 5.00773L10.0109 4.5028ZM9.14776 7.12234L8.41509 6.96205L8.3507 7.25639L9.08337 7.41668L9.81604 7.57696L9.88044 7.28262L9.14776 7.12234Z" fill="#737373"/>
</svg>
