<svg width="24" height="24" viewBox="0 0 24 24" fill="none" xmlns="http://www.w3.org/2000/svg">
<path d="M8.77168 13.6667C9.14172 15.1044 10.4468 16.1667 12 16.1667C13.5532 16.1667 14.8583 15.1044 15.2283 13.6667M11.1814 4.30335L5.52949 8.69929C5.15168 8.99314 4.96278 9.14006 4.82669 9.32406C4.70614 9.48705 4.61633 9.67067 4.56169 9.86589C4.5 10.0863 4.5 10.3256 4.5 10.8042V16.8333C4.5 17.7668 4.5 18.2335 4.68166 18.59C4.84144 18.9036 5.09641 19.1586 5.41002 19.3183C5.76654 19.5 6.23325 19.5 7.16667 19.5H16.8333C17.7668 19.5 18.2335 19.5 18.59 19.3183C18.9036 19.1586 19.1586 18.9036 19.3183 18.59C19.5 18.2335 19.5 17.7668 19.5 16.8333V10.8042C19.5 10.3256 19.5 10.0863 19.4383 9.86589C19.3837 9.67067 19.2939 9.48705 19.1733 9.32406C19.0372 9.14006 18.8483 8.99314 18.4705 8.69929L12.8186 4.30335C12.5258 4.07564 12.3794 3.96178 12.2178 3.91802C12.0752 3.8794 11.9248 3.8794 11.7822 3.91802C11.6206 3.96178 11.4742 4.07564 11.1814 4.30335Z" stroke="#404040" stroke-width="1.5" stroke-linecap="round" stroke-linejoin="round"/>
</svg>
