<svg width="170" height="32" viewBox="0 0 170 32" fill="none" xmlns="http://www.w3.org/2000/svg">
<path d="M10.4136 27.6163H7.88037V13.7397H10.3018L14.9211 19.9981L19.4287 13.7397H21.8501V27.6163H19.2983V18.1914L15.0143 23.891H14.7162L10.4136 18.0051V27.6163Z" fill="#0C0F10"/>
<path d="M25.3363 31.6955C25.0631 31.6955 24.7961 31.6706 24.5353 31.6209C24.2746 31.5837 24.0386 31.5092 23.8275 31.3974V29.3672C23.989 29.4044 24.1814 29.4417 24.4049 29.4789C24.6409 29.5162 24.8582 29.5348 25.0569 29.5348C25.6157 29.5348 26.0254 29.4106 26.2862 29.1623C26.547 28.9139 26.7705 28.5724 26.9568 28.1378L27.1803 27.5977L23.1756 17.4836H25.8019L28.4282 24.4684L31.0359 17.4836H33.6809L29.2664 28.6221C28.8815 29.5907 28.3661 30.3419 27.7204 30.8759C27.0747 31.4223 26.28 31.6955 25.3363 31.6955Z" fill="#0C0F10"/>
<path d="M37.5648 15.9748V20.2589H40.247C40.93 20.2589 41.4764 20.0602 41.8862 19.6628C42.2959 19.2655 42.5008 18.7501 42.5008 18.1168C42.5008 17.4711 42.2959 16.9558 41.8862 16.5709C41.4764 16.1735 40.93 15.9748 40.247 15.9748H37.5648ZM37.5648 27.6163H35.0317V13.7397H40.2098C40.9176 13.7397 41.5633 13.839 42.1469 14.0377C42.743 14.2239 43.2521 14.5033 43.6743 14.8759C44.1089 15.2484 44.4442 15.7078 44.6801 16.2542C44.916 16.8006 45.034 17.4215 45.034 18.1168C45.034 18.7998 44.916 19.4145 44.6801 19.9609C44.4442 20.5072 44.1089 20.9667 43.6743 21.3392C43.2521 21.7117 42.743 21.9973 42.1469 22.196C41.5633 22.3947 40.9176 22.494 40.2098 22.494H37.5648V27.6163Z" fill="#0C0F10"/>
<path d="M49.1508 27.6163H46.7108V17.4836H49.0018V18.9178C49.2626 18.3466 49.6227 17.9492 50.0821 17.7257C50.554 17.4898 51.1066 17.3718 51.7399 17.3718H52.3359V19.5325H51.4605C50.7527 19.5325 50.1877 19.7436 49.7655 20.1657C49.3557 20.5879 49.1508 21.1902 49.1508 21.9725V27.6163Z" fill="#0C0F10"/>
<path d="M58.438 25.6046C58.8478 25.6046 59.2203 25.5301 59.5556 25.3811C59.9033 25.2197 60.2013 25.0086 60.4497 24.7478C60.698 24.4746 60.8905 24.1518 61.0271 23.7793C61.1637 23.4067 61.232 22.997 61.232 22.5499C61.232 22.1153 61.1637 21.7117 61.0271 21.3392C60.8905 20.9667 60.698 20.6438 60.4497 20.3706C60.2013 20.0975 59.9033 19.8864 59.5556 19.7373C59.2203 19.5759 58.8478 19.4952 58.438 19.4952C58.0283 19.4952 57.6495 19.5759 57.3018 19.7373C56.9541 19.8864 56.6499 20.0975 56.3891 20.3706C56.1408 20.6438 55.9483 20.9667 55.8117 21.3392C55.6751 21.7117 55.6068 22.1153 55.6068 22.5499C55.6068 22.997 55.6751 23.4067 55.8117 23.7793C55.9483 24.1518 56.1408 24.4746 56.3891 24.7478C56.6499 25.0086 56.9541 25.2197 57.3018 25.3811C57.6495 25.5301 58.0283 25.6046 58.438 25.6046ZM58.438 27.8212C57.693 27.8212 56.9914 27.6908 56.3333 27.43C55.6875 27.1568 55.1225 26.7905 54.6383 26.3311C54.154 25.8592 53.769 25.3004 53.4834 24.6547C53.2102 24.009 53.0736 23.3074 53.0736 22.5499C53.0736 21.7924 53.2102 21.0909 53.4834 20.4451C53.769 19.7994 54.154 19.2406 54.6383 18.7688C55.1225 18.2969 55.6875 17.9306 56.3333 17.6698C56.9914 17.3966 57.693 17.26 58.438 17.26C59.1831 17.26 59.8785 17.3966 60.5242 17.6698C61.1699 17.9306 61.7349 18.2969 62.2192 18.7688C62.7035 19.2282 63.0822 19.7808 63.3554 20.4265C63.641 21.0722 63.7838 21.78 63.7838 22.5499C63.7838 23.3074 63.641 24.009 63.3554 24.6547C63.0698 25.3004 62.6848 25.8592 62.2006 26.3311C61.7163 26.7905 61.1513 27.1568 60.5056 27.43C59.8598 27.6908 59.1707 27.8212 58.438 27.8212Z" fill="#0C0F10"/>
<path d="M70.6928 25.6046C71.115 25.6046 71.4999 25.5301 71.8476 25.3811C72.2077 25.2321 72.512 25.021 72.7603 24.7478C73.0087 24.4746 73.2012 24.1518 73.3378 23.7793C73.4868 23.4067 73.5613 22.997 73.5613 22.5499C73.5613 22.1153 73.4868 21.7117 73.3378 21.3392C73.2012 20.9667 73.0087 20.6438 72.7603 20.3706C72.512 20.0975 72.2077 19.8864 71.8476 19.7373C71.4999 19.5759 71.115 19.4952 70.6928 19.4952C70.283 19.4952 69.9043 19.5759 69.5566 19.7373C69.2213 19.8864 68.9295 20.0975 68.6812 20.3706C68.4328 20.6314 68.2341 20.9481 68.0851 21.3206C67.9485 21.6931 67.8802 22.1029 67.8802 22.5499C67.8802 22.997 67.9485 23.4067 68.0851 23.7793C68.2341 24.1518 68.4328 24.4746 68.6812 24.7478C68.9295 25.021 69.2213 25.2321 69.5566 25.3811C69.9043 25.5301 70.283 25.6046 70.6928 25.6046ZM67.8802 31.3229H65.4402V17.4836H67.7312V18.6756C68.0913 18.2286 68.5446 17.8809 69.0909 17.6326C69.6497 17.3842 70.283 17.26 70.9908 17.26C71.6986 17.26 72.363 17.3966 72.9838 17.6698C73.6047 17.943 74.1449 18.3217 74.6043 18.806C75.0638 19.2779 75.4239 19.8367 75.6847 20.4824C75.9579 21.1157 76.0945 21.8049 76.0945 22.5499C76.0945 23.295 75.9641 23.9904 75.7033 24.6361C75.4425 25.2694 75.0824 25.8219 74.623 26.2938C74.1759 26.7657 73.6358 27.1382 73.0025 27.4114C72.3816 27.6846 71.7048 27.8212 70.9722 27.8212C70.3513 27.8212 69.7739 27.7218 69.24 27.5232C68.706 27.3245 68.2528 27.0265 67.8802 26.6291V31.3229Z" fill="#0C0F10"/>
<path d="M84.7084 21.3765C84.6463 20.7432 84.4041 20.234 83.9819 19.8491C83.5721 19.4642 83.0382 19.2717 82.3801 19.2717C81.7716 19.2717 81.2439 19.4517 80.7968 19.8118C80.3622 20.172 80.0766 20.6935 79.94 21.3765H84.7084ZM82.5663 27.8212C81.784 27.8212 81.07 27.6846 80.4243 27.4114C79.791 27.1382 79.2446 26.7657 78.7852 26.2938C78.3257 25.8095 77.9718 25.2507 77.7235 24.6174C77.4751 23.9717 77.351 23.2763 77.351 22.5313C77.351 21.7738 77.4751 21.0722 77.7235 20.4265C77.9842 19.7808 78.3381 19.2282 78.7852 18.7688C79.2446 18.2969 79.7786 17.9306 80.387 17.6698C81.0079 17.3966 81.6723 17.26 82.3801 17.26C83.1624 17.26 83.8577 17.3966 84.4662 17.6698C85.0871 17.9306 85.6024 18.2845 86.0122 18.7315C86.4344 19.1786 86.7572 19.7063 86.9808 20.3148C87.2043 20.9108 87.316 21.5441 87.316 22.2146C87.316 22.3885 87.3036 22.5685 87.2788 22.7548C87.2664 22.9411 87.2353 23.1025 87.1857 23.2391H79.8841C79.9586 23.9841 80.238 24.5802 80.7223 25.0272C81.219 25.4743 81.8399 25.6978 82.5849 25.6978C83.1437 25.6978 83.6156 25.5798 84.0006 25.3439C84.3979 25.1079 84.7084 24.7913 84.9319 24.3939L86.9063 25.3625C86.7572 25.7226 86.5399 26.0579 86.2543 26.3683C85.9812 26.6663 85.6583 26.9271 85.2858 27.1506C84.9132 27.3617 84.4973 27.5232 84.0378 27.6349C83.5784 27.7591 83.0879 27.8212 82.5663 27.8212Z" fill="#0C0F10"/>
<path d="M91.4117 27.6163H88.9717V17.4836H91.2627V18.9178C91.5235 18.3466 91.8836 17.9492 92.3431 17.7257C92.8149 17.4898 93.3675 17.3718 94.0008 17.3718H94.5969V19.5325H93.7214C93.0136 19.5325 92.4486 19.7436 92.0264 20.1657C91.6166 20.5879 91.4117 21.1902 91.4117 21.9725V27.6163Z" fill="#0C0F10"/>
<path d="M100.364 27.7094C99.2089 27.7094 98.321 27.4052 97.7001 26.7967C97.0793 26.1758 96.7688 25.288 96.7688 24.1332V19.6628H95.0179V17.4836H95.2042C95.7009 17.4836 96.0858 17.3532 96.359 17.0924C96.6322 16.8316 96.7688 16.4529 96.7688 15.9562V15.1739H99.2089V17.4836H101.537V19.6628H99.2089V24.0028C99.2089 24.5119 99.3455 24.903 99.6186 25.1762C99.8918 25.4494 100.326 25.586 100.922 25.586C101.009 25.586 101.109 25.5798 101.221 25.5674C101.345 25.555 101.463 25.5426 101.574 25.5301V27.6163C101.401 27.6411 101.202 27.6597 100.978 27.6722C100.755 27.697 100.55 27.7094 100.364 27.7094Z" fill="#0C0F10"/>
<path d="M104.474 31.6955C104.201 31.6955 103.934 31.6706 103.673 31.6209C103.412 31.5837 103.176 31.5092 102.965 31.3974V29.3672C103.127 29.4044 103.319 29.4417 103.543 29.4789C103.779 29.5162 103.996 29.5348 104.195 29.5348C104.753 29.5348 105.163 29.4106 105.424 29.1623C105.685 28.9139 105.908 28.5724 106.094 28.1378L106.318 27.5977L102.313 17.4836H104.94L107.566 24.4684L110.174 17.4836H112.819L108.404 28.6221C108.019 29.5907 107.504 30.3419 106.858 30.8759C106.212 31.4223 105.418 31.6955 104.474 31.6955Z" fill="#0C0F10"/>
<path d="M119.124 27.8212C118.466 27.8212 117.839 27.728 117.243 27.5418C116.647 27.3555 116.106 27.0947 115.622 26.7595C115.138 26.4242 114.716 26.0206 114.356 25.5488C114.008 25.0769 113.741 24.5554 113.555 23.9841L115.659 23.0715C115.995 23.8662 116.479 24.4933 117.112 24.9527C117.746 25.3997 118.46 25.6233 119.254 25.6233C119.925 25.6233 120.459 25.4743 120.856 25.1762C121.254 24.8658 121.452 24.4498 121.452 23.9283C121.452 23.5185 121.328 23.1832 121.08 22.9224C120.844 22.6617 120.484 22.4506 119.999 22.2892L117.336 21.4323C116.243 21.0846 115.424 20.5817 114.877 19.9236C114.343 19.2531 114.076 18.4645 114.076 17.5581C114.076 16.962 114.188 16.4156 114.411 15.9189C114.635 15.4222 114.952 15 115.361 14.6524C115.771 14.2922 116.262 14.0128 116.833 13.8142C117.404 13.6155 118.031 13.5161 118.714 13.5161C119.335 13.5161 119.919 13.6031 120.465 13.7769C121.024 13.9383 121.527 14.1743 121.974 14.4847C122.421 14.7827 122.812 15.1428 123.147 15.565C123.483 15.9872 123.743 16.4591 123.93 16.9806L121.843 17.912C121.57 17.2042 121.16 16.664 120.614 16.2915C120.068 15.9189 119.434 15.7327 118.714 15.7327C118.081 15.7327 117.566 15.8879 117.168 16.1983C116.771 16.5088 116.572 16.9248 116.572 17.4463C116.572 17.8312 116.69 18.1727 116.926 18.4708C117.174 18.7564 117.559 18.9799 118.081 19.1413L120.633 19.9422C122.843 20.65 123.948 21.929 123.948 23.7793C123.948 24.3753 123.83 24.9217 123.594 25.4184C123.358 25.9027 123.029 26.3249 122.607 26.685C122.185 27.0451 121.676 27.3245 121.08 27.5232C120.484 27.7218 119.832 27.8212 119.124 27.8212Z" fill="#0F4841"/>
<path d="M130.45 27.7094C129.295 27.7094 128.407 27.4052 127.786 26.7967C127.165 26.1758 126.855 25.288 126.855 24.1332V19.6628H125.104V17.4836H125.29C125.787 17.4836 126.172 17.3532 126.445 17.0924C126.718 16.8316 126.855 16.4529 126.855 15.9562V15.1739H129.295V17.4836H131.623V19.6628H129.295V24.0028C129.295 24.5119 129.431 24.903 129.705 25.1762C129.978 25.4494 130.412 25.586 131.008 25.586C131.095 25.586 131.195 25.5798 131.306 25.5674C131.431 25.555 131.549 25.5426 131.66 25.5301V27.6163C131.486 27.6411 131.288 27.6597 131.064 27.6722C130.841 27.697 130.636 27.7094 130.45 27.7094Z" fill="#0F4841"/>
<path d="M139.44 23.0715L136.888 23.4999C135.932 23.6613 135.454 24.1083 135.454 24.841C135.454 25.1887 135.584 25.468 135.845 25.6791C136.118 25.8778 136.454 25.9772 136.851 25.9772C137.236 25.9772 137.584 25.9151 137.894 25.7909C138.217 25.6543 138.49 25.4743 138.714 25.2507C138.949 25.0272 139.13 24.7665 139.254 24.4684C139.378 24.158 139.44 23.8289 139.44 23.4812V23.0715ZM136.404 27.8212C135.336 27.8212 134.485 27.5666 133.852 27.0575C133.231 26.536 132.921 25.8282 132.921 24.9341C132.921 24.0897 133.2 23.3881 133.759 22.8293C134.33 22.2705 135.218 21.8918 136.423 21.6931L139.44 21.2088V20.8735C139.44 20.4389 139.266 20.0788 138.918 19.7932C138.583 19.4952 138.136 19.3462 137.577 19.3462C137.056 19.3462 136.59 19.489 136.18 19.7746C135.783 20.0478 135.491 20.4141 135.305 20.8735L133.312 19.905C133.461 19.5076 133.672 19.1475 133.945 18.8247C134.231 18.5018 134.566 18.2224 134.951 17.9865C135.336 17.7505 135.758 17.5705 136.218 17.4463C136.677 17.3221 137.161 17.26 137.67 17.26C138.291 17.26 138.856 17.347 139.365 17.5208C139.887 17.6947 140.334 17.943 140.707 18.2659C141.079 18.5763 141.365 18.955 141.563 19.4021C141.774 19.8491 141.88 20.3396 141.88 20.8735V27.6163H139.57V26.536C138.788 27.3928 137.733 27.8212 136.404 27.8212Z" fill="#0F4841"/>
<path d="M148.561 27.7094C147.406 27.7094 146.518 27.4052 145.897 26.7967C145.276 26.1758 144.966 25.288 144.966 24.1332V19.6628H143.215V17.4836H143.401C143.898 17.4836 144.283 17.3532 144.556 17.0924C144.829 16.8316 144.966 16.4529 144.966 15.9562V15.1739H147.406V17.4836H149.734V19.6628H147.406V24.0028C147.406 24.5119 147.542 24.903 147.816 25.1762C148.089 25.4494 148.523 25.586 149.119 25.586C149.206 25.586 149.306 25.5798 149.417 25.5674C149.542 25.555 149.66 25.5426 149.771 25.5301V27.6163C149.597 27.6411 149.399 27.6597 149.175 27.6722C148.952 27.697 148.747 27.7094 148.561 27.7094Z" fill="#0F4841"/>
<path d="M155.055 27.8212C154.459 27.8212 153.925 27.7218 153.453 27.5232C152.981 27.3245 152.578 27.0451 152.242 26.685C151.92 26.3249 151.671 25.8902 151.497 25.3811C151.324 24.872 151.237 24.307 151.237 23.6861V17.4836H153.677V23.4812C153.677 24.1145 153.863 24.6299 154.235 25.0272C154.608 25.4122 155.105 25.6046 155.726 25.6046C156.322 25.6046 156.812 25.4122 157.197 25.0272C157.582 24.6299 157.774 24.0959 157.774 23.4254V17.4836H160.215V27.6163H157.905V26.4056C157.619 26.8774 157.228 27.2313 156.731 27.4673C156.247 27.7032 155.688 27.8212 155.055 27.8212Z" fill="#0F4841"/>
<path d="M166.144 27.8212C165.052 27.8212 164.108 27.5728 163.313 27.0761C162.518 26.567 161.972 25.8654 161.674 24.9713L163.499 24.0959C163.76 24.6671 164.12 25.1141 164.58 25.437C165.052 25.7599 165.573 25.9213 166.144 25.9213C166.591 25.9213 166.945 25.8219 167.206 25.6233C167.467 25.4246 167.597 25.1638 167.597 24.841C167.597 24.5554 167.479 24.3318 167.243 24.1704C167.02 24.009 166.747 23.8786 166.424 23.7793L164.766 23.3136C163.909 23.0652 163.257 22.6927 162.81 22.196C162.376 21.6869 162.158 21.0784 162.158 20.3706C162.158 19.8988 162.251 19.4766 162.438 19.104C162.624 18.7191 162.878 18.39 163.201 18.1168C163.537 17.8437 163.934 17.6326 164.393 17.4836C164.853 17.3345 165.356 17.26 165.902 17.26C166.871 17.26 167.715 17.4898 168.435 17.9492C169.168 18.4087 169.69 19.0544 170 19.8864L168.137 20.7618C167.963 20.3023 167.672 19.936 167.262 19.6628C166.865 19.3897 166.405 19.2531 165.884 19.2531C165.474 19.2531 165.151 19.3462 164.915 19.5325C164.679 19.7187 164.561 19.9609 164.561 20.2589C164.561 20.5445 164.667 20.768 164.878 20.9294C165.101 21.0909 165.393 21.2212 165.753 21.3206L167.374 21.8049C168.206 22.0532 168.845 22.4257 169.292 22.9224C169.752 23.4191 169.981 24.0276 169.981 24.7478C169.981 25.2073 169.888 25.6233 169.702 25.9958C169.516 26.3683 169.255 26.6912 168.92 26.9644C168.584 27.2375 168.181 27.4486 167.709 27.5977C167.237 27.7467 166.715 27.8212 166.144 27.8212Z" fill="#0F4841"/>
<path d="M28.2336 11.9635L23.8816 7.65487V2.67762C23.8816 1.77767 23.145 1.04833 22.2347 1.04833C21.3264 1.04833 20.5898 1.77767 20.5898 2.67762V4.39587L17.3494 1.18761C15.7473 -0.397671 12.9618 -0.394859 11.3634 1.19048L0.481774 11.9635C-0.160591 12.6008 -0.160591 13.6319 0.481774 14.2681C1.12443 14.9052 2.16791 14.9052 2.81033 14.2681L13.6909 3.49477C14.0453 3.14568 14.6701 3.14568 15.0227 3.49374L25.9051 14.2681C26.2278 14.5867 26.6485 14.7451 27.0691 14.7451C27.4906 14.7451 27.912 14.5865 28.2337 14.2681C28.8763 13.6319 28.8763 12.6008 28.2336 11.9635Z" fill="#0F4841"/>
</svg>
