<svg width="24" height="24" viewBox="0 0 24 24" fill="none" xmlns="http://www.w3.org/2000/svg">
<g clip-path="url(#clip0_3168_9720)">
<path d="M9.61351 9.61358L6.1074 6.10747M6.1074 17.8926L9.63993 14.3601M14.3842 14.3865L17.8903 17.8926M17.8903 6.10747L14.3572 9.64052M20.3333 12C20.3333 16.6024 16.6023 20.3333 12 20.3333C7.39759 20.3333 3.66663 16.6024 3.66663 12C3.66663 7.39763 7.39759 3.66667 12 3.66667C16.6023 3.66667 20.3333 7.39763 20.3333 12ZM15.3333 12C15.3333 13.841 13.8409 15.3333 12 15.3333C10.159 15.3333 8.66663 13.841 8.66663 12C8.66663 10.1591 10.159 8.66667 12 8.66667C13.8409 8.66667 15.3333 10.1591 15.3333 12Z" stroke="#737373" stroke-width="1.5" stroke-linecap="round" stroke-linejoin="round"/>
</g>
<defs>
<clipPath id="clip0_3168_9720">
<rect width="20" height="20" fill="white" transform="translate(2 2)"/>
</clipPath>
</defs>
</svg>
